<svg xmlns="http://www.w3.org/2000/svg"  viewBox="0 0 64 64" width="128px" height="128px"><path fill="#fff7f0" d="M54.837,28.332c-1.113-1.979-2.931-3.405-5.121-4.019c-1.095-0.306-2.202-0.377-3.268-0.251 c-1.123-1.835-2.864-3.164-4.95-3.748c-0.185-0.052-0.371-0.073-0.557-0.112l1.763-6.046c1.239-4.425-1.496-9.022-6.064-9.988 c-4.169-0.881-8.269,1.834-9.418,5.938l-1.626,5.82C25.583,15.976,25.541,16,25.5,16s-0.083-0.024-0.096-0.073l-1.626-5.82 c-1.149-4.103-5.249-6.819-9.418-5.938c-4.568,0.966-7.303,5.563-6.064,9.988l3.698,13.209C10.011,28.837,9,31.017,9,33.875V40 c0,11.402,9.028,20,21,20c9.519,0,17.567-6.372,20.134-15.071c1.945-1.079,3.454-2.898,4.08-5.138l1.399-5 C56.226,32.604,55.95,30.311,54.837,28.332z"/><path fill="#85cbf8" d="M54.837,28.332c-1.113-1.979-2.931-3.405-5.121-4.019c-1.095-0.306-2.202-0.377-3.268-0.251 c-1.123-1.835-2.864-3.164-4.95-3.748c-0.185-0.052-0.371-0.073-0.557-0.112l1.763-6.046c1.239-4.425-1.496-9.022-6.064-9.988 c-4.169-0.881-8.269,1.834-9.418,5.938l-1.626,5.82C25.583,15.976,25.541,16,25.5,16s-0.083-0.024-0.096-0.073l-1.626-5.82 c-1.149-4.103-5.249-6.819-9.418-5.938c-4.568,0.966-7.303,5.563-6.064,9.988l3.698,13.209C10.011,28.837,9,31.017,9,33.875V40 c0,11.402,9.028,20,21,20c9.519,0,17.567-6.372,20.134-15.071c1.945-1.079,3.454-2.898,4.08-5.138l1.399-5 C56.226,32.604,55.95,30.311,54.837,28.332z M51.762,33.713l-1.399,5c-0.491,1.756-1.959,2.972-3.651,3.232 C45.309,49.915,38.366,56,30,56c-9.691,0-17-6.878-17-16v-6.375C13,31.071,15.071,29,17.625,29l-1.054-0.125L12.208,13.29 c-0.584-2.085,0.457-4.39,2.51-5.08c2.19-0.736,4.52,0.516,5.134,2.711l3.482,12.435C23.64,24.452,24.57,25,25.5,25 s1.86-0.548,2.167-1.644l3.482-12.435c0.614-2.195,2.944-3.446,5.134-2.711c2.053,0.69,3.094,2.994,2.51,5.08l-2.929,10.46 l-1.575,5.625l0.001,0.001l0.586-2.09c0.669-2.392,3.156-3.787,5.546-3.12c2.394,0.67,3.791,3.153,3.12,5.546l-0.429,1.532 c0.687-2.366,3.153-3.741,5.529-3.078C51.035,28.836,52.432,31.319,51.762,33.713z"/><path fill="#8d6c9f" d="M31.5,39H23c-0.553,0-1-0.448-1-1s0.447-1,1-1h8.5c1.93,0,3.5-1.57,3.5-3.5S33.43,30,31.5,30H17 c-0.553,0-1-0.448-1-1s0.447-1,1-1h14.5c3.032,0,5.5,2.467,5.5,5.5S34.532,39,31.5,39z"/><path fill="#8d6c9f" d="M36.407,44.001c-0.5,0-0.999-0.069-1.484-0.205c-2.631-0.736-4.296-3.245-3.959-5.965l1.984,0.245 c-0.214,1.73,0.844,3.326,2.514,3.794c0.31,0.086,0.628,0.13,0.945,0.13c1.563,0,2.947-1.051,3.368-2.557l2.804-10.001 c0.252-0.9,0.139-1.844-0.319-2.659c-0.459-0.815-1.207-1.402-2.107-1.654c-1.866-0.518-3.794,0.57-4.313,2.426l-0.727,2.593 l-1.926-0.54l0.727-2.592c0.815-2.917,3.856-4.631,6.777-3.813c1.416,0.396,2.592,1.319,3.313,2.599 c0.72,1.281,0.898,2.765,0.502,4.18l-2.804,10.001C41.04,42.349,38.862,44.001,36.407,44.001z"/><path fill="#8d6c9f" d="M46.031,43.001c-0.5,0-0.999-0.069-1.484-0.205c-2.92-0.817-4.631-3.858-3.813-6.779l1.399-5 c0.815-2.917,3.854-4.626,6.777-3.814c2.921,0.818,4.632,3.859,3.814,6.779l-1.399,5C50.664,41.348,48.487,43.001,46.031,43.001z M47.432,29c-1.531,0-2.941,1.012-3.373,2.556l-1.399,5c-0.252,0.9-0.139,1.845,0.32,2.66c0.458,0.815,1.206,1.402,2.106,1.654 c0.31,0.086,0.628,0.13,0.945,0.13c1.563,0,2.947-1.052,3.368-2.557l1.399-5c0.521-1.858-0.568-3.794-2.427-4.314 C48.059,29.042,47.742,29,47.432,29z"/><path fill="#8d6c9f" d="M30,61C17.458,61,8,51.972,8,40v-6.125c0-2.913,0.959-5.222,2.854-6.874L7.333,14.427 c-0.668-2.386-0.315-4.971,0.97-7.091c1.303-2.15,3.381-3.622,5.851-4.145c4.623-0.973,9.271,1.943,10.588,6.646l0.759,2.717 l0.759-2.717c1.317-4.704,5.967-7.623,10.588-6.647c2.47,0.522,4.548,1.994,5.851,4.145c1.285,2.121,1.638,4.705,0.97,7.091 l-1.475,5.055c1.93,0.639,3.591,1.873,4.763,3.535c1.024-0.052,2.04,0.058,3.029,0.334c2.447,0.686,4.479,2.28,5.724,4.492l0,0 c1.244,2.211,1.553,4.775,0.868,7.219l-1.399,5c-0.639,2.287-2.159,4.283-4.201,5.534C48.111,54.686,39.543,61,30,61z M15.95,5.003 c-0.458,0-0.921,0.047-1.383,0.145c-1.924,0.407-3.541,1.552-4.555,3.224c-1.014,1.673-1.281,3.632-0.754,5.516l3.884,13.871 l-0.553,0.41C10.847,29.461,10,31.328,10,33.875V40c0,10.832,8.598,19,20,19c8.797,0,16.682-5.903,19.175-14.354l0.116-0.393 l0.357-0.199c1.757-0.974,3.069-2.626,3.603-4.532l1.399-5c0.54-1.93,0.297-3.954-0.685-5.699l0,0 c-0.982-1.746-2.588-3.005-4.52-3.546c-0.938-0.261-1.906-0.335-2.882-0.221l-0.636,0.075l-0.334-0.546 c-0.993-1.622-2.543-2.796-4.366-3.307c-0.085-0.023-0.171-0.037-0.257-0.052l-1.295-0.263l2.067-7.086 c0.524-1.873,0.257-3.832-0.757-5.505c-1.014-1.672-2.631-2.817-4.555-3.224c-3.586-0.759-7.213,1.537-8.248,5.229l-1.625,5.819 C26.427,16.669,25.991,17,25.5,17s-0.927-0.331-1.06-0.804l-1.625-5.82C21.914,7.161,19.048,5.003,15.95,5.003z"/><path fill="#8d6c9f" d="M30 57c-10.262 0-18-7.309-18-17v-6.375c0-2.317 1.408-4.312 3.415-5.172l-4.17-14.893c-.752-2.685.634-5.451 3.154-6.297 1.317-.443 2.717-.33 3.941.318 1.223.648 2.102 1.738 2.474 3.071l3.481 12.435C24.484 23.76 25.042 24 25.5 24s1.016-.24 1.204-.913l3.481-12.435c.372-1.332 1.251-2.422 2.474-3.07 1.224-.648 2.623-.761 3.941-.318 2.521.846 3.906 3.612 3.154 6.297l-4.503 16.084c-.148.533-.704.843-1.232.693-.532-.149-.843-.701-.693-1.232l4.503-16.084c.457-1.631-.38-3.363-1.865-3.862-.791-.265-1.633-.199-2.368.19-.734.389-1.261 1.042-1.484 1.841L28.63 23.626C28.232 25.046 26.975 26 25.5 26s-2.732-.954-3.13-2.374l-3.481-12.435c-.224-.799-.75-1.453-1.484-1.842-.735-.39-1.576-.457-2.368-.19-1.485.499-2.322 2.231-1.865 3.862l4.183 14.94.39.046c.525.063.911.524.88 1.052S18.154 30 17.625 30C15.626 30 14 31.626 14 33.625V40c0 8.551 6.879 15 16 15 3.781 0 7.457-1.364 10.35-3.84.419-.357 1.051-.311 1.41.109s.31 1.051-.109 1.41C38.395 55.466 34.258 57 30 57zM43.999 49.565c-.194 0-.392-.057-.564-.175-.455-.313-.571-.935-.26-1.391.575-.838 1.027-1.628 1.383-2.413.229-.503.82-.728 1.324-.498.503.228.726.821.498 1.324-.405.892-.914 1.781-1.555 2.717C44.631 49.413 44.317 49.565 43.999 49.565zM13.341 62.955c-.204 0-.409-.062-.587-.191-.447-.325-.546-.95-.221-1.397l1.176-1.618c.324-.447.949-.546 1.396-.221.447.325.546.95.221 1.397l-1.176 1.618C13.955 62.812 13.65 62.955 13.341 62.955zM9.269 59.347c-.268 0-.534-.107-.731-.318-.377-.404-.354-1.037.05-1.414l1.463-1.364c.403-.377 1.036-.354 1.413.049s.354 1.037-.05 1.414L9.95 59.079C9.758 59.258 9.513 59.347 9.269 59.347zM5.96 55.028c-.333 0-.659-.167-.849-.47-.293-.468-.15-1.085.318-1.378l1.696-1.06c.466-.293 1.085-.151 1.377.318.293.468.15 1.085-.318 1.378l-1.696 1.06C6.324 54.979 6.141 55.028 5.96 55.028zM3.534 50.157c-.401 0-.781-.244-.934-.642C2.402 49 2.66 48.421 3.176 48.223l1.867-.717c.517-.198 1.094.059 1.292.575.198.516-.06 1.094-.575 1.292L3.893 50.09C3.774 50.136 3.653 50.157 3.534 50.157z"/><path fill="#8d6c9f" d="M30,47c-0.553,0-1-0.448-1-1c0-6.92-5.755-7-6-7c-0.553,0-1-0.448-1-1s0.447-1,1-1 c0.08,0,8,0.103,8,9C31,46.552,30.553,47,30,47z"/></svg>