<svg width="22" height="22" viewBox="0 0 22 22" fill="none" xmlns="http://www.w3.org/2000/svg">
<path fill-rule="evenodd" clip-rule="evenodd" d="M2 10.9995C2 9.81763 2.23279 8.64736 2.68508 7.55548C3.13738 6.46361 3.80031 5.4715 4.63604 4.63581C5.47177 3.80013 6.46392 3.13722 7.55585 2.68495C8.64778 2.23268 9.8181 1.9999 11 1.9999C12.1819 1.9999 13.3522 2.23268 14.4442 2.68495C15.5361 3.13722 16.5282 3.80013 17.364 4.63581C18.1997 5.4715 18.8626 6.46361 19.3149 7.55548C19.7672 8.64736 20 9.81763 20 10.9995C20 13.3863 19.0518 15.6754 17.364 17.3631C15.6761 19.0509 13.3869 19.999 11 19.999C8.61305 19.999 6.32387 19.0509 4.63604 17.3631C2.94821 15.6754 2 13.3863 2 10.9995ZM11 0C4.925 0 0 4.92476 0 10.9995C0 17.0742 4.925 21.9989 11 21.9989C17.075 21.9989 22 17.0742 22 10.9995C22 4.92476 17.075 0 11 0ZM8.172 6.75667C7.98436 6.56904 7.72986 6.46363 7.4645 6.46363C7.19914 6.46363 6.94464 6.56904 6.757 6.75667C6.56936 6.9443 6.46394 7.19879 6.46394 7.46414C6.46394 7.59553 6.48982 7.72563 6.54011 7.84702C6.59039 7.9684 6.66409 8.0787 6.757 8.1716L9.586 10.9995L6.757 13.8273C6.56936 14.015 6.46394 14.2694 6.46394 14.5348C6.46394 14.8001 6.56936 15.0546 6.757 15.2423C6.94464 15.4299 7.19914 15.5353 7.4645 15.5353C7.72986 15.5353 7.98436 15.4299 8.172 15.2423L11 12.4134L13.829 15.2423C13.9219 15.3351 14.0322 15.4087 14.1536 15.459C14.2749 15.5092 14.405 15.535 14.5364 15.535C14.6677 15.5349 14.7978 15.509 14.9191 15.4587C15.0404 15.4084 15.1507 15.3347 15.2435 15.2418C15.3363 15.1489 15.41 15.0386 15.4602 14.9172C15.5104 14.7959 15.5363 14.6658 15.5362 14.5344C15.5362 14.4031 15.5102 14.2731 15.4599 14.1517C15.4096 14.0304 15.3359 13.9202 15.243 13.8273L12.414 10.9995L15.243 8.1716C15.4306 7.98411 15.5361 7.72975 15.5362 7.46449C15.5363 7.19923 15.431 6.9448 15.2435 6.75717C15.056 6.56954 14.8016 6.46408 14.5364 6.46398C14.2711 6.46389 14.0166 6.56917 13.829 6.75667L11 9.58554L8.172 6.75667Z" fill="black"/>
</svg>
