<svg width="17" height="18" viewBox="0 0 17 18" fill="none" xmlns="http://www.w3.org/2000/svg">
<path fill-rule="evenodd" clip-rule="evenodd" d="M3 0C2.20435 0 1.44129 0.316071 0.87868 0.87868C0.316071 1.44129 0 2.20435 0 3V15C0 15.7956 0.316071 16.5587 0.87868 17.1213C1.44129 17.6839 2.20435 18 3 18H14C14.2652 18 14.5196 17.8946 14.7071 17.7071C14.8946 17.5196 15 17.2652 15 17C15 16.7348 14.8946 16.4804 14.7071 16.2929C14.5196 16.1054 14.2652 16 14 16H3C2.73478 16 2.48043 15.8946 2.29289 15.7071C2.10536 15.5196 2 15.2652 2 15V3C2 2.73478 2.10536 2.48043 2.29289 2.29289C2.48043 2.10536 2.73478 2 3 2H14C14.2652 2 14.5196 1.89464 14.7071 1.70711C14.8946 1.51957 15 1.26522 15 1C15 0.734784 14.8946 0.48043 14.7071 0.292893C14.5196 0.105357 14.2652 0 14 0H3ZM12.707 4.293C12.6148 4.19749 12.5044 4.12131 12.3824 4.0689C12.2604 4.01649 12.1292 3.9889 11.9964 3.98775C11.8636 3.9866 11.7319 4.0119 11.609 4.06218C11.4861 4.11246 11.3745 4.18671 11.2806 4.2806C11.1867 4.3745 11.1125 4.48615 11.0622 4.60905C11.0119 4.73194 10.9866 4.86362 10.9877 4.9964C10.9889 5.12918 11.0165 5.2604 11.0689 5.3824C11.1213 5.50441 11.1975 5.61475 11.293 5.707L13.586 8H5C4.73478 8 4.48043 8.10536 4.29289 8.29289C4.10536 8.48043 4 8.73478 4 9C4 9.26522 4.10536 9.51957 4.29289 9.70711C4.48043 9.89464 4.73478 10 5 10H13.586L11.293 12.293C11.1108 12.4816 11.01 12.7342 11.0123 12.9964C11.0146 13.2586 11.1198 13.5094 11.3052 13.6948C11.4906 13.8802 11.7414 13.9854 12.0036 13.9877C12.2658 13.99 12.5184 13.8892 12.707 13.707L16.707 9.707C16.8945 9.51947 16.9998 9.26516 16.9998 9C16.9998 8.73484 16.8945 8.48053 16.707 8.293L12.707 4.293Z" fill="#000000"/>
</svg>
