<svg width="22" height="22" viewBox="0 0 22 22" fill="none" xmlns="http://www.w3.org/2000/svg">
<path fill-rule="evenodd" clip-rule="evenodd" d="M11 1.9999C9.8181 1.9999 8.64778 2.23268 7.55585 2.68495C6.46392 3.13722 5.47177 3.80013 4.63604 4.63581C3.80031 5.4715 3.13738 6.46361 2.68508 7.55548C2.23279 8.64736 2 9.81763 2 10.9995C2 12.1813 2.23279 13.3516 2.68508 14.4435C3.13738 15.5353 3.80031 16.5274 4.63604 17.3631C5.47177 18.1988 6.46392 18.8617 7.55585 19.314C8.64778 19.7663 9.8181 19.999 11 19.999C13.3869 19.999 15.6761 19.0509 17.364 17.3631C19.0518 15.6754 20 13.3863 20 10.9995C20 8.61263 19.0518 6.32356 17.364 4.63581C15.6761 2.94807 13.3869 1.9999 11 1.9999ZM0 10.9995C0 4.92476 4.925 0 11 0C17.075 0 22 4.92476 22 10.9995C22 17.0742 17.075 21.9989 11 21.9989C4.925 21.9989 0 17.0742 0 10.9995ZM12.25 15.7492C12.25 16.0807 12.1183 16.3987 11.8839 16.6331C11.6495 16.8675 11.3315 16.9992 11 16.9992C10.6685 16.9992 10.3505 16.8675 10.1161 16.6331C9.8817 16.3987 9.75 16.0807 9.75 15.7492C9.75 15.4177 9.8817 15.0998 10.1161 14.8654C10.3505 14.631 10.6685 14.4993 11 14.4993C11.3315 14.4993 11.6495 14.631 11.8839 14.8654C12.1183 15.0998 12.25 15.4177 12.25 15.7492ZM9.135 7.96361C9.4 7.45964 10.083 6.99966 11 6.99966C12.283 6.99966 13 7.83462 13 8.49959C13 9.16456 12.283 9.99952 11 9.99952C10.7348 9.99952 10.4804 10.1049 10.2929 10.2924C10.1054 10.4799 10 10.7343 10 10.9995V11.9994C10 12.2646 10.1054 12.519 10.2929 12.7065C10.4804 12.894 10.7348 12.9994 11 12.9994C11.2652 12.9994 11.5196 12.894 11.7071 12.7065C11.8946 12.519 12 12.2646 12 11.9994V11.8864C13.632 11.5134 15 10.2465 15 8.49959C15 6.40369 13.03 4.99976 11 4.99976C9.457 4.99976 8.025 5.77472 7.364 7.03566C7.29924 7.15225 7.25845 7.28061 7.24404 7.4132C7.22963 7.54578 7.2419 7.67991 7.2801 7.80769C7.31831 7.93546 7.3817 8.05431 7.46653 8.15722C7.55136 8.26013 7.65592 8.34504 7.77405 8.40694C7.89219 8.46884 8.02151 8.50648 8.15442 8.51766C8.28732 8.52883 8.42112 8.5133 8.54793 8.47199C8.67475 8.43068 8.79201 8.36443 8.89284 8.27712C8.99366 8.18981 9.07599 8.08322 9.135 7.96361Z" fill="black"/>
</svg>
