<svg width="20" height="21" viewBox="0 0 20 21" fill="none" xmlns="http://www.w3.org/2000/svg">
<path fill-rule="evenodd" clip-rule="evenodd" d="M7.99997 0.995117C7.73475 0.995117 7.4804 1.10047 7.29286 1.28801C7.10533 1.47555 6.99997 1.7299 6.99997 1.99512V3.57712C6.31033 3.85646 5.66308 4.23074 5.07697 4.68912L3.70597 3.89712C3.47629 3.76451 3.20334 3.72858 2.94717 3.79722C2.691 3.86586 2.47258 4.03344 2.33997 4.26312L0.33997 7.72712C0.207367 7.9568 0.171433 8.22974 0.240071 8.48592C0.308709 8.74209 0.476297 8.9605 0.70597 9.09312L2.07597 9.88412C1.97341 10.6212 1.97341 11.369 2.07597 12.1061L0.70597 12.8961C0.592115 12.9618 0.492321 13.0492 0.412295 13.1535C0.33227 13.2578 0.273583 13.3768 0.23959 13.5037C0.205598 13.6307 0.196966 13.7631 0.21419 13.8934C0.231414 14.0237 0.274156 14.1493 0.33997 14.2631L2.33997 17.7271C2.47258 17.9568 2.691 18.1244 2.94717 18.193C3.20334 18.2617 3.47629 18.2257 3.70597 18.0931L5.07697 17.3011C5.65797 17.7561 6.30497 18.1311 6.99997 18.4131V19.9951C6.99997 20.2603 7.10533 20.5147 7.29286 20.7022C7.4804 20.8898 7.73475 20.9951 7.99997 20.9951H12C12.2652 20.9951 12.5195 20.8898 12.7071 20.7022C12.8946 20.5147 13 20.2603 13 19.9951V18.4131C13.6896 18.1338 14.3368 17.7595 14.923 17.3011L16.294 18.0931C16.5236 18.2257 16.7966 18.2617 17.0528 18.193C17.3089 18.1244 17.5274 17.9568 17.66 17.7271L19.66 14.2631C19.7926 14.0334 19.8285 13.7605 19.7599 13.5043C19.6912 13.2481 19.5236 13.0297 19.294 12.8971L17.924 12.1061C18.0265 11.369 18.0265 10.6212 17.924 9.88412L19.294 9.09412C19.4078 9.02845 19.5076 8.94099 19.5876 8.83673C19.6677 8.73246 19.7264 8.61345 19.7603 8.48649C19.7943 8.35953 19.803 8.22711 19.7857 8.09681C19.7685 7.96651 19.7258 7.84089 19.66 7.72712L17.66 4.26312C17.5274 4.03344 17.3089 3.86586 17.0528 3.79722C16.7966 3.72858 16.5236 3.76451 16.294 3.89712L14.923 4.68912C14.3369 4.23075 13.6896 3.85647 13 3.57712V1.99512C13 1.7299 12.8946 1.47555 12.7071 1.28801C12.5195 1.10047 12.2652 0.995117 12 0.995117H7.99997ZM8.99997 4.28512V2.99512H11V4.28512C11.0001 4.50051 11.0697 4.7101 11.1986 4.88271C11.3274 5.05533 11.5085 5.18173 11.715 5.24312C12.6153 5.512 13.4399 5.98883 14.122 6.63512C14.2784 6.78338 14.4786 6.87711 14.6927 6.90234C14.9068 6.92757 15.1233 6.88294 15.31 6.77512L16.428 6.12912L17.428 7.86112L16.311 8.50612C16.1246 8.61372 15.9779 8.77859 15.8927 8.97622C15.8074 9.17386 15.7883 9.39371 15.838 9.60312C16.0555 10.5184 16.0555 11.4719 15.838 12.3871C15.7883 12.5965 15.8074 12.8164 15.8927 13.014C15.9779 13.2116 16.1246 13.3765 16.311 13.4841L17.428 14.1291L16.428 15.8611L15.309 15.2151C15.1224 15.1075 14.9061 15.063 14.6923 15.0883C14.4784 15.1135 14.2784 15.2071 14.122 15.3551C13.4399 16.0015 12.6154 16.4783 11.715 16.7471C11.5085 16.8085 11.3274 16.9349 11.1986 17.1075C11.0697 17.2801 11.0001 17.4897 11 17.7051V18.9951H8.99997V17.7051C8.99986 17.4897 8.9302 17.2801 8.80137 17.1075C8.67254 16.9349 8.49143 16.8085 8.28497 16.7471C7.38459 16.4783 6.56006 16.0014 5.87797 15.3551C5.72149 15.2069 5.52129 15.1131 5.30721 15.0879C5.09313 15.0627 4.87663 15.1073 4.68997 15.2151L3.57197 15.8611L2.57197 14.1291L3.68897 13.4841C3.87536 13.3765 4.02207 13.2116 4.10728 13.014C4.1925 12.8164 4.21168 12.5965 4.16197 12.3871C3.94444 11.4719 3.94444 10.5184 4.16197 9.60312C4.21168 9.39371 4.1925 9.17386 4.10728 8.97622C4.02207 8.77859 3.87536 8.61372 3.68897 8.50612L2.57197 7.86112L3.57197 6.12912L4.68997 6.77512C4.87663 6.88294 5.09313 6.92757 5.30721 6.90234C5.52129 6.87711 5.72149 6.78338 5.87797 6.63512C6.56008 5.98883 7.3846 5.512 8.28497 5.24312C8.49143 5.18173 8.67254 5.05533 8.80137 4.88271C8.9302 4.7101 8.99986 4.50051 8.99997 4.28512ZM7.99997 10.9951C7.99997 10.4647 8.21068 9.95598 8.58576 9.5809C8.96083 9.20583 9.46954 8.99512 9.99997 8.99512C10.5304 8.99512 11.0391 9.20583 11.4142 9.5809C11.7893 9.95598 12 10.4647 12 10.9951C12 11.5255 11.7893 12.0343 11.4142 12.4093C11.0391 12.7844 10.5304 12.9951 9.99997 12.9951C9.46954 12.9951 8.96083 12.7844 8.58576 12.4093C8.21068 12.0343 7.99997 11.5255 7.99997 10.9951ZM9.99997 6.99512C8.9391 6.99512 7.92169 7.41654 7.17154 8.16669C6.4214 8.91684 5.99997 9.93425 5.99997 10.9951C5.99997 12.056 6.4214 13.0734 7.17154 13.8235C7.92169 14.5737 8.9391 14.9951 9.99997 14.9951C11.0608 14.9951 12.0783 14.5737 12.8284 13.8235C13.5785 13.0734 14 12.056 14 10.9951C14 9.93425 13.5785 8.91684 12.8284 8.16669C12.0783 7.41654 11.0608 6.99512 9.99997 6.99512Z" fill="black"/>
</svg>
