<svg width="24" height="24" viewBox="0 0 24 24" fill="none" xmlns="http://www.w3.org/2000/svg">
<path fill-rule="evenodd" clip-rule="evenodd" d="M10.973 4.944C10.773 5.957 10.437 7.477 9.207 8.707C9.095 8.819 8.972 8.937 8.842 9.063C7.7 10.164 6 11.804 6 14.5C6 15.963 6.63 17.35 7.601 18.375C8.578 19.406 9.829 20 11 20H16C16.352 20 16.646 19.91 16.82 19.793C16.965 19.697 17 19.613 17 19.5C17 19.388 16.965 19.303 16.82 19.207C16.646 19.091 16.352 19 16 19H15C14.7348 19 14.4804 18.8946 14.2929 18.7071C14.1054 18.5196 14 18.2652 14 18C14 17.7348 14.1054 17.4804 14.2929 17.2929C14.4804 17.1054 14.7348 17 15 17H16.5C16.852 17 17.146 16.91 17.32 16.793C17.465 16.697 17.5 16.613 17.5 16.5C17.5 16.388 17.465 16.303 17.32 16.207C17.146 16.091 16.852 16 16.5 16H15.5C15.2348 16 14.9804 15.8946 14.7929 15.7071C14.6054 15.5196 14.5 15.2652 14.5 15C14.5 14.7348 14.6054 14.4804 14.7929 14.2929C14.9804 14.1054 15.2348 14 15.5 14H17C17.352 14 17.646 13.91 17.82 13.793C17.965 13.697 18 13.613 18 13.5C18 13.388 17.965 13.303 17.82 13.207C17.646 13.091 17.352 13 17 13H16C15.7348 13 15.4804 12.8946 15.2929 12.7071C15.1054 12.5196 15 12.2652 15 12C15 11.7348 15.1054 11.4804 15.2929 11.2929C15.4804 11.1054 15.7348 11 16 11H17C17.352 11 17.646 10.91 17.82 10.793C17.965 10.697 18 10.613 18 10.5C18 10.388 17.965 10.303 17.82 10.207C17.646 10.091 17.352 10 17 10H12.5C12.341 10 12.1843 9.96217 12.0429 9.88954C11.9015 9.8169 11.7794 9.71159 11.6868 9.58234C11.5942 9.45309 11.5338 9.30363 11.5105 9.14636C11.4872 8.98908 11.5018 8.82852 11.553 8.678V8.677L11.557 8.667L11.57 8.627L11.623 8.457C11.667 8.307 11.728 8.09 11.791 7.829C11.9431 7.21731 12.0362 6.59245 12.069 5.963C12.095 5.278 12.004 4.753 11.821 4.433C11.713 4.243 11.55 4.072 11.171 4.018C11.123 4.182 11.079 4.406 11.015 4.734L10.973 4.944ZM13.803 8C13.925 7.442 14.041 6.747 14.068 6.037C14.098 5.222 14.018 4.247 13.558 3.442C13.048 2.546 12.146 2 10.9 2C10.518 2 10.16 2.126 9.87 2.38C9.607 2.61 9.457 2.896 9.364 3.126C9.216 3.493 9.124 3.969 9.047 4.371L9.011 4.556C8.817 5.543 8.563 6.523 7.793 7.293C7.705 7.381 7.598 7.483 7.476 7.598C6.353 8.662 4 10.893 4 14.5C4 16.537 4.87 18.4 6.149 19.75C7.422 21.094 9.171 22 11 22H16C16.648 22 17.354 21.84 17.93 21.457C18.535 21.053 19 20.387 19 19.5C19 19.031 18.87 18.625 18.66 18.285C19.149 17.875 19.5 17.272 19.5 16.5C19.5 16.031 19.37 15.624 19.16 15.286C19.649 14.876 20 14.272 20 13.5C20 12.891 19.782 12.387 19.449 12C19.781 11.613 20 11.109 20 10.5C20 9.612 19.535 8.947 18.93 8.543C18.354 8.159 17.648 8 17 8H13.803Z" fill="black"/>
</svg>
